<svg id="share" xmlns="http://www.w3.org/2000/svg" viewBox="0 0 200 200"><defs><style>.cls-1{fill:#c25e33;}.cls-2{fill:#fff;stroke:#fff;stroke-miterlimit:10;}</style></defs><title>mail</title><circle class="cls-1" cx="101.26" cy="101" r="79"/><g id="mail"><path class="cls-2" d="M141.88,62.5H60.63a9.38,9.38,0,0,0-9.37,9.38v56.24a9.38,9.38,0,0,0,9.37,9.38h81.25a9.38,9.38,0,0,0,9.38-9.38V71.88A9.38,9.38,0,0,0,141.88,62.5Zm0,9.38v8c-4.37,3.57-11.36,9.12-26.28,20.8-3.29,2.59-9.81,8.81-14.34,8.73-4.53.08-11.05-6.14-14.34-8.73C72,89,65,83.41,60.63,79.84v-8ZM60.63,128.12V91.87c4.48,3.57,10.83,8.57,20.5,16.15,4.27,3.36,11.75,10.77,20.13,10.73S117,111.48,121.39,108c9.67-7.58,16-12.58,20.49-16.15v36.25Z"/></g></svg>