<svg xmlns="http://www.w3.org/2000/svg" viewBox="0 0 200 200"><defs><style>.cls-1{font-size:48px;fill:#e8e7e1;font-family:ArialMT, Arial;letter-spacing:0.08em;}.cls-2{fill:none;stroke:#e8e7e1;stroke-miterlimit:10;stroke-width:5px;}</style></defs><title>signin</title><g id="sign_in" data-name="sign in"><text class="cls-1" transform="translate(20 59.19)">sign</text><text class="cls-1" transform="translate(20 111.88)">in</text><g id="pencil"><line class="cls-2" x1="163.25" y1="41.72" x2="149.26" y2="32.39"/><polyline class="cls-2" points="84.08 162.08 67.76 171.41 70.09 152.75"/><polygon class="cls-2" points="170.34 31.48 156.35 22.16 70.06 152.75 84.06 162.08 170.34 31.48"/><path class="cls-2" d="M55.28,170c22.83,8.52,31.26,9.35,42.77,6,10.7-3.15,15.59-4.58,26.77-18.9C142,135,159,132.64,167.11,136.82c7.92,4.08,11.7,21.2,3.84,31.45-10.14,13.24-34.15,7.83-36.34,1.4-1.36-4,4.79-11.28,11.53-12.23,4.28-.61,10.49,1.09,11.18,4.89.55,3-2.57,5.79-3.14,6.29"/></g></g></svg>