<svg id="share" xmlns="http://www.w3.org/2000/svg" viewBox="0 0 200 200"><defs><style>.cls-1{fill:#0084b4;}.cls-2{fill:#fff;}</style></defs><title>twitter</title><circle class="cls-1" cx="100" cy="100" r="79"/><g id="twitter"><path class="cls-2" d="M142.11,81.43c.06.9.06,1.8.06,2.69,0,27.36-20.82,58.88-58.88,58.88a58.47,58.47,0,0,1-31.78-9.29,42.6,42.6,0,0,0,30.69-8.58,20.73,20.73,0,0,1-19.35-14.35,26.56,26.56,0,0,0,3.91.32,21.83,21.83,0,0,0,5.45-.71,20.7,20.7,0,0,1-16.6-20.31v-.25A20.86,20.86,0,0,0,65,92.45a20.71,20.71,0,0,1-6.41-27.67,58.86,58.86,0,0,0,42.67,21.65,23.4,23.4,0,0,1-.51-4.74,20.71,20.71,0,0,1,35.81-14.16,40.81,40.81,0,0,0,13.14-5,20.68,20.68,0,0,1-9.1,11.41,41.38,41.38,0,0,0,11.92-3.21,44.51,44.51,0,0,1-10.38,10.7Z"/></g></svg>