<?xml version="1.0" encoding="utf-8"?>
<!-- Generator: Adobe Illustrator 23.0.4, SVG Export Plug-In . SVG Version: 6.00 Build 0)  -->
<svg version="1.1" id="Layer_1" xmlns="http://www.w3.org/2000/svg" xmlns:xlink="http://www.w3.org/1999/xlink" x="0px" y="0px"
	 viewBox="0 0 30 30" style="enable-background:new 0 0 30 30;" xml:space="preserve">
<style type="text/css">
	.st0{fill:#FFFFFF;stroke:#231F20;stroke-miterlimit:10;}
	.st1{font-family:'Consolas';}
	.st2{font-size:12px;}
	.st3{fill:none;}
	.st4{fill:none;stroke:#231F20;stroke-width:0.75;stroke-miterlimit:10;}
</style>
<path class="st0" d="M5.58,28.96L26.38,29c0.34,0,0.62-0.28,0.62-0.62V6.26c0-0.16-0.06-0.32-0.18-0.44l-4.64-4.67
	c-0.12-0.12-0.27-0.18-0.44-0.18L5.61,0.99c-0.34,0-0.62,0.28-0.62,0.62L4.96,28.34C4.96,28.68,5.24,28.96,5.58,28.96z"/>
<path class="st0" d="M21.98,1c0.02,0.82,0.03,3.49,0.03,4.54c0,0.25,0.2,0.44,0.45,0.44L26.98,6"/>
<text transform="matrix(1 0 0 1 6.1422 17.337)" class="st1 st2">PDF</text>
<polygon class="st3" points="3.02,19.61 16.05,19.61 16.05,19.61 3.02,19.61 "/>
<path class="st4" d="M13.31,24.89L15.55,27c0.16,0.14,0.4,0.14,0.55-0.02l2.21-2.25"/>
<line class="st4" x1="15.84" y1="19.73" x2="15.84" y2="27.31"/>
</svg>
