<svg xmlns="http://www.w3.org/2000/svg" viewBox="0 0 390.17 77.33">
  <defs>
    <style>
      .cls-1 {
        fill: none;
        stroke: #000;
        stroke-miterlimit: 10;
        stroke-width: 1.5;
      }
      @keyframes offset {
        100% {
            stroke-dashoffset: 0;
        }
      }
      #text-W {
        stroke-dasharray: 340;
        stroke-dashoffset: 340;
        animation: offset 3s linear forwards;
      }
      #text-eb {
        stroke-dasharray: 250;
        stroke-dashoffset: 250;
        animation: offset 3s linear 3s forwards;
        }
      #text-D1 {
        stroke-dasharray: 230;
        stroke-dashoffset: 230;
        animation: offset 2s linear 6s forwards;
      }
      #text-D2 {
        stroke-dasharray: 60;
        stroke-dashoffset: 60;
        animation: offset 1s linear 8s forwards;
      }
      #text-esigner {
        stroke-dasharray: 640;
        stroke-dashoffset: 640;
        animation: offset 6s linear 9s forwards;
      }
      #text-idot {
        stroke-dasharray: 10;
        stroke-dashoffset: 10;
        animation: offset 0.5s linear 15s forwards;
      }
    </style>
  </defs>
  <title>webdesign</title>
  <path id="text-W" class="cls-1" d="M12.5,30.58C6.23,28.72,1.67,24.24,1.08,19.08.61,14.91,2.89,11.55,4,9.92c3.77-5.55,9.6-7.27,12.08-8C22,.16,27,1,30.5,1.67,40.19,3.46,41.29,9.8,47.88,9.25A7.38,7.38,0,0,0,52,8c1.72-.92,2.42-2.5,1.42-3.75s-3.8-.37-5,.71C46,7.27,45.65,8.49,43,12.25,36.83,21,36.67,20.17,30.42,32.5a45.71,45.71,0,0,0-4.5,14c-.92,6-.42,7-.25,9.17A10.61,10.61,0,0,0,31,63.17c3.41,1.74,7,.82,9.08,0,5.32-2.14,9-6.18,13.5-10.92,2.12-2.22,3.52-4.57,6.59-9,1.12-1.63,3.26-4.71,4.66-7,5.19-8.48,7.48-17.38,7-17.58s-2.56,4.26-3.89,7.39A51.13,51.13,0,0,0,64,41.69c-.34,4-.55,7,.88,10.43.68,1.67,1.76,4.3,4.37,5.76,4.28,2.38,9.59,0,11.25-1,3.18-1.9,6.24-5.16,9.81-9.94a65.74,65.74,0,0,0,8-15.82,51.91,51.91,0,0,0,3.13-12.31c.45-3.81.89-7.9-.82-12.62A21.1,21.1,0,0,0,97.81.88" transform="translate(-0.52 0.5)"/>
  <path id="text-eb" class="cls-1" d="M103.83,40.75a29.75,29.75,0,0,0,11.34-4c2.49-1.52,4.84-3.33,4.75-5.17a2.28,2.28,0,0,0-1.84-2.16c-5.89-1.88-15.38,8.5-14.16,14.41.36,1.78,1,3.32,3.16,3.92a9.68,9.68,0,0,0,5.42,0c6.21-1.88,12.14-8,18.25-13.42,0,0,22.07-17.31,22.07-22.41a2.67,2.67,0,0,0,0-.4,3.48,3.48,0,0,0-3.68-3.27c-7.41,0-15.4,12.67-22.32,26.06-.09.17-.18.34-.26.51-2.6,5.07-3.27,7.65-3.27,8.35a1.32,1.32,0,0,0,1.16,1.23c.42,0,.84-.63,2.46-2.21l.17-.18,3.33-3.89c.48-.6,2.34-2.41,2.59-2.62,1.5-1.26,4.94-3.33,6.42-3.33,2.16,0,4.21.91,4.21,3.54a13.93,13.93,0,0,1-3.86,8.81c-.52.82-8.85,7.06-12.81,6.86-2.37-.13-3.24-.8-3.24-2.38.32-3.17,16.12-4.25,16.12-4.25,3-.5,7.38-2.94,10.06-5.87" transform="translate(-0.52 0.5)"/>
  <path id="text-D1" class="cls-1" d="M183.64,29.23c0,.51-4,3.75-9.58,3.75-4.46,0-9.93-2.67-9.93-9.65C164.09,11.38,183,0,204.84,0c19.59,0,29.6,9.36,29.6,23.26C234.44,44,212.33,65,193.39,65c-6.26,0-9.86-3.67-9.86-7.27,0-7.06,10.73-11.74,22.61-11.74" transform="translate(-0.52 0.5)"/>
  <path id="text-D2" class="cls-1" d="M180.86,49.07a1.47,1.47,0,0,1-.33-1.12c0-13.32,24.55-38.88,28.87-38.88" transform="translate(-0.52 0.5)"/>
  <path id="text-esigner" class="cls-1" d="M236.58,40.79a29.59,29.59,0,0,0,11.34-4c2.49-1.52,4.84-3.33,4.75-5.17a2.29,2.29,0,0,0-1.84-2.16c-5.89-1.87-15.38,8.5-14.16,14.42.36,1.77,1,3.31,3.16,3.91a10.91,10.91,0,0,0,5.42,0c7.33-1.58,14.93-12.06,14.93-12.06A51,51,0,0,0,264,30c1.22-2.24,2.52-4,3.24-4a1.47,1.47,0,0,1,1.3,1.16c0,.79-3.24,3.31-3.24,6.19s2.38,5.3,2.58,9.4a6.73,6.73,0,0,1-.06,1.19l-.07.53a6.43,6.43,0,0,1-.69,2.32,7.9,7.9,0,0,1-6.88,4.12c-2.52,0-4.32-1.66-4.32-3.17,0-1.87,1.51-2.34,4.14-2.49,2.34-.14,7.82-1.18,7.82-1.18a15.48,15.48,0,0,0,8.56-5.33c5.83-7.18,7.85-10.34,7.54-10s-5.78,7.89-7.48,11.33a6.5,6.5,0,0,0-.75,3.76,3.12,3.12,0,0,0,.11.53,3.21,3.21,0,0,0,1.87,2.14h0a5.41,5.41,0,0,0,4.12-.44c4.09-1.72,9.4-8.47,9.4-8.47,3.43-4.85,9.76-9.32,14.94-9.32,3.82,0,4.89,2,4.89,3.5a3.31,3.31,0,0,1-1.36,2.47c-.14-.07,1.38-.86,1.38-2.49a4.76,4.76,0,0,0-.75-2c-.89-1.09-3.39-1.49-4.12-1.5-2.57,0-9.57,1.69-15.19,9.81,0,0-2.27,4-2.27,6a3.77,3.77,0,0,0,3.74,4.1c4.38.19,10.55-6.3,11.84-8.08,1.81-2.18,2.57-4.62,3-4.62s.43.17.43.53a29,29,0,0,1-1.23,4.47c-.72,2.16-2.37,6.65-3.45,9.31,0,0-13.57,26.52-23.73,26.52-4.17,0-6.79-2-6.43-5.87.79-8.63,31.59-22.13,31-22.62,5-2.59,9.48-5.49,12.6-9.07a107.25,107.25,0,0,0,7.43-9.44c-1.5,2-12.56,18.19-10.82,17.36a65.27,65.27,0,0,1,7.52-8.61c1.23-1.18,3.3-3.09,4-3.74l.5-.41c4.1-3.1,8.15-5.06,11-5.06,1.66-.09,3.55.92,3.65,2.57v.27c0,3.82-8,10.22-8,13.46-.13,1.71,2.21,2.11,3.61,2,2.82,0,5.72-2,7.41-4.1a8,8,0,0,1,3.1-2.37,29.63,29.63,0,0,0,11.33-4c2.5-1.52,4.85-3.33,4.76-5.17A2.28,2.28,0,0,0,360,29.42c-5.89-1.88-15.39,8.5-14.16,14.41.36,1.78,1,3.32,3.16,3.92a11.79,11.79,0,0,0,5.42,0c7-1.21,10.8-5.64,15.15-10.87q.28-.35.54-.72a78.07,78.07,0,0,0,4.74-7.8c.39-.74,1.53-3.94,2.44-4.19.68.06,1,.16,1.17.83,0,1.08-2.33,3.89-2.33,5,0,.5,2.12,1.2,3.56,2,1.37,1.26-1.21,4.64-1.49,5.15-1.87,3.43-3.66,5-3.39,8.12a3.06,3.06,0,0,0,1.44,2.59c1.34.88,2.59.29,4-.27a36.23,36.23,0,0,0,10-8.06" transform="translate(-0.52 0.5)"/>
  <path id="text-idot" class="cls-1" d="M287.46,23.47a.26.26,0,0,1-.25-.21v-.14c0-.92,1-2.06,1.41-2.06h.14a.25.25,0,0,1,.24.22v.11c0,.75-.79,2.07-1.38,2.07h-.06Z" transform="translate(-0.52 0.5)"/>
</svg>
